<svg width="128" height="131" viewBox="0 0 128 131" fill="none" xmlns="http://www.w3.org/2000/svg">
<path d="M64 128C99.3462 128 128 99.3462 128 64C128 28.6538 99.3462 0 64 0C28.6538 0 0 28.6538 0 64C0 99.3462 28.6538 128 64 128Z" fill="url(#paint0_linear)"/>
<g filter="url(#filter0_d)">
<path d="M37 107C37 104.791 35.2091 103 33 103H30C27.7909 103 26 104.791 26 107V117.5C26 118.328 25.3284 119 24.5 119V119C23.6716 119 23 119.672 23 120.5V121C23 122.105 23.8954 123 25 123H38C39.1046 123 40 122.105 40 121V120.5C40 119.672 39.3284 119 38.5 119V119C37.6716 119 37 118.328 37 117.5V107Z" fill="#008A85"/>
</g>
<g filter="url(#filter1_d)">
<rect x="60" y="73" width="40" height="56" rx="4" transform="rotate(90 60 73)" fill="white"/>
</g>
<path opacity="0.5" d="M3.99963 83L59.9996 83L59.9996 77C59.9996 74.7909 58.2088 73 55.9996 73L7.99964 73C5.7905 73 3.99963 74.7909 3.99963 77L3.99963 83Z" fill="#3AA9A5"/>
<circle cx="55.2496" cy="78.25" r="1.25" fill="white"/>
<circle cx="50.2496" cy="78.25" r="1.25" fill="white"/>
<circle cx="45.2496" cy="78.25" r="1.25" fill="white"/>
<defs>
<filter id="filter0_d" x="19" y="103" width="25" height="28" filterUnits="userSpaceOnUse" color-interpolation-filters="sRGB">
<feFlood flood-opacity="0" result="BackgroundImageFix"/>
<feColorMatrix in="SourceAlpha" type="matrix" values="0 0 0 0 0 0 0 0 0 0 0 0 0 0 0 0 0 0 127 0"/>
<feOffset dy="4"/>
<feGaussianBlur stdDeviation="2"/>
<feColorMatrix type="matrix" values="0 0 0 0 0.278431 0 0 0 0 0.74902 0 0 0 0 0.509804 0 0 0 0.08 0"/>
<feBlend mode="normal" in2="BackgroundImageFix" result="effect1_dropShadow"/>
<feBlend mode="normal" in="SourceGraphic" in2="effect1_dropShadow" result="shape"/>
</filter>
<filter id="filter1_d" x="0" y="73" width="64" height="48" filterUnits="userSpaceOnUse" color-interpolation-filters="sRGB">
<feFlood flood-opacity="0" result="BackgroundImageFix"/>
<feColorMatrix in="SourceAlpha" type="matrix" values="0 0 0 0 0 0 0 0 0 0 0 0 0 0 0 0 0 0 127 0"/>
<feOffset dy="4"/>
<feGaussianBlur stdDeviation="2"/>
<feColorMatrix type="matrix" values="0 0 0 0 0.278431 0 0 0 0 0.74902 0 0 0 0 0.509804 0 0 0 0.08 0"/>
<feBlend mode="normal" in2="BackgroundImageFix" result="effect1_dropShadow"/>
<feBlend mode="normal" in="SourceGraphic" in2="effect1_dropShadow" result="shape"/>
</filter>
<linearGradient id="paint0_linear" x1="194.963" y1="-71.1111" x2="-49.1852" y2="173.037" gradientUnits="userSpaceOnUse">
<stop stop-color="#E5F3F3"/>
<stop offset="1" stop-color="#E9F9E1" stop-opacity="0"/>
</linearGradient>
</defs>
</svg>
