<svg width="695" height="481" viewBox="0 0 695 481" fill="none" xmlns="http://www.w3.org/2000/svg">
<rect x="146.722" y="144.814" width="414.426" height="289.372" rx="8" fill="#E5F3F3"/>
<path d="M146.722 152.814C146.722 148.396 150.304 144.814 154.722 144.814H553.148C557.566 144.814 561.148 148.396 561.148 152.814V178.253H146.722V152.814Z" fill="#005653"/>
<ellipse cx="167.315" cy="161.534" rx="5.14815" ry="5.14439" fill="white"/>
<ellipse cx="185.333" cy="161.534" rx="5.14816" ry="5.14439" fill="white"/>
<ellipse cx="203.352" cy="161.534" rx="5.14816" ry="5.14439" fill="white"/>
<rect x="162.167" y="193.686" width="115.833" height="225.067" rx="4" fill="#006F6B"/>
<rect x="289.583" y="193.686" width="257.407" height="97.7433" rx="4" fill="#3AA9A5"/>
<rect x="305.028" y="215.55" width="64.3519" height="5.14438" rx="2.57219" fill="white"/>
<rect x="305.028" y="228.411" width="230.38" height="2.57219" rx="1.28609" fill="white"/>
<rect x="305.028" y="236.127" width="160.88" height="2.5722" rx="1.2861" fill="white"/>
<rect x="305.028" y="257.991" width="230.38" height="2.57217" rx="1.28609" fill="white"/>
<rect x="305.028" y="265.707" width="160.88" height="2.5722" rx="1.2861" fill="white"/>
<rect x="305.028" y="250.274" width="230.38" height="2.57219" rx="1.28609" fill="white"/>
<ellipse cx="220.083" cy="232.269" rx="19.3056" ry="19.2914" fill="white"/>
<rect x="177.611" y="272.138" width="64.3519" height="5.14438" rx="2.57219" fill="white"/>
<rect x="177.611" y="284.999" width="84.9445" height="2.5722" rx="1.2861" fill="white"/>
<rect x="177.611" y="292.716" width="59.2037" height="2.5722" rx="1.2861" fill="white"/>
<rect x="289.583" y="299.146" width="104.25" height="119.607" rx="4" fill="#3AA9A5"/>
<rect x="310.176" y="402.034" width="64.3518" height="5.14438" rx="2.57219" fill="white"/>
<rect x="297.306" y="306.863" width="88.8056" height="82.3102" rx="2" fill="white"/>
<path d="M351.683 342.821C353.399 343.811 353.399 346.286 351.683 347.276L333.343 357.857C331.627 358.847 329.481 357.609 329.481 355.629L329.481 334.467C329.481 332.487 331.627 331.25 333.343 332.24L351.683 342.821Z" fill="#3AA9A5"/>
<g opacity="0.5">
<path opacity="0.5" d="M242.9 146.36H239.389C239.389 146.36 240.353 147.38 242.9 146.36Z" fill="url(#paint0_linear)"/>
</g>
<path d="M307.602 155.746C310.176 158.318 317.075 162.54 316.282 158.634C315.488 154.728 310.819 153.817 308.877 153.255C308.234 153.898 307.602 155.103 307.602 155.746Z" fill="#FDA57D"/>
<path d="M282.443 133.906C288.117 142.019 296.759 151.399 308.919 156.935L310.728 153.717C310.728 153.717 289.295 134.996 283.023 110.517L282.393 111.065C277.047 115.714 277.047 126.171 282.443 133.906Z" fill="#4D8AF0"/>
<path opacity="0.05" d="M282.443 133.906C288.117 142.019 296.759 151.399 308.919 156.935L310.728 153.717C310.728 153.717 289.295 134.996 283.023 110.517L282.393 111.065C277.047 115.714 277.047 126.171 282.443 133.906Z" fill="black"/>
<path d="M285.11 107.532L280.937 109.951L276.341 116.993L282.897 119.563L288.476 117.075L292.29 113.56L285.11 107.532Z" fill="#FDA57D"/>
<path d="M262.498 126.133C273.189 109.705 281.056 110.335 281.056 110.335C281.006 118.643 288.35 117.201 288.343 117.226C289.327 121.749 280.836 144.942 280.836 144.942L245.866 144.723C248.779 143.515 253.957 139.246 262.498 126.133Z" fill="#4D8AF0"/>
<path opacity="0.1" d="M284.996 107.45C285.456 110.782 286.742 114.486 289.484 116.193L291.527 114.303L284.996 107.437V107.45Z" fill="black"/>
<path d="M307.242 106.068C307.28 99.9278 302.331 94.919 296.186 94.8804C290.041 94.8418 285.029 99.7881 284.99 105.928C284.952 112.068 289.901 117.077 296.046 117.116C302.191 117.154 307.203 112.208 307.242 106.068Z" fill="#FDA57D"/>
<path opacity="0.1" d="M308.213 110.7C309.083 107.632 309.839 104.401 309.139 101.251C307.91 95.7964 302.319 92.1429 296.753 91.6264C292.479 91.2295 287.808 92.5587 285.223 95.9791C282.979 98.9397 282.613 102.946 280.64 106.095C278.812 109.012 275.692 111.059 274.337 114.215C274.108 114.637 274.041 115.127 274.148 115.594C274.393 116.319 275.257 116.571 275.988 116.791C277.784 117.337 279.449 118.243 280.881 119.454C282.314 120.665 283.485 122.155 284.322 123.834C284.114 117.938 288.375 112.943 292.397 108.628C294.288 106.612 297.44 103.651 300.276 105.535C300.661 105.837 307.734 112.388 308.213 110.7Z" fill="black"/>
<path opacity="0.1" d="M265.587 133.131C269.221 145.654 276.723 156.708 287.02 164.715L291.079 162.466C291.079 162.466 273.795 136.842 279.014 111.859L277.905 112.118C275.681 112.631 273.587 113.592 271.748 114.943C269.91 116.293 268.367 118.005 267.214 119.972C266.061 121.939 265.321 124.121 265.042 126.384C264.762 128.647 264.948 130.943 265.587 133.131Z" fill="black"/>
<path d="M265.839 133.132C269.474 145.654 276.975 156.708 287.272 164.715L291.332 162.466C291.332 162.466 274.034 136.816 279.279 111.834L278.169 112.092C275.942 112.604 273.843 113.565 272.002 114.916C270.16 116.268 268.614 117.982 267.459 119.952C266.304 121.923 265.565 124.108 265.286 126.375C265.008 128.641 265.196 130.94 265.839 133.132Z" fill="#4D8AF0"/>
<path d="M308.213 110.454C309.083 107.387 309.839 104.155 309.14 101.006C307.91 95.5507 302.319 91.8973 296.753 91.3807C292.479 90.9839 287.808 92.313 285.223 95.7334C282.979 98.694 278.573 100.685 276.6 103.834C274.772 106.751 275.692 110.807 274.318 113.969C274.089 114.391 274.022 114.881 274.129 115.349C274.375 116.073 275.238 116.325 275.969 116.546C277.765 117.092 279.43 117.998 280.862 119.209C282.295 120.419 283.466 121.91 284.303 123.588C284.095 117.692 288.356 112.697 292.378 108.382C294.269 106.366 297.421 103.406 300.258 105.289C300.661 105.585 307.734 112.136 308.213 110.454Z" fill="#333333"/>
<path d="M287.379 164.822C287.379 164.822 293.267 173.641 294.534 169.861C295.801 166.082 291.59 162.302 291.59 162.302L287.379 164.822Z" fill="#FDA57D"/>
<path d="M293.665 109.552C294.392 108.099 294.477 106.668 293.854 106.357C293.231 106.046 292.137 106.972 291.41 108.425C290.682 109.878 290.598 111.308 291.221 111.619C291.843 111.93 292.938 111.005 293.665 109.552Z" fill="#FDA57D"/>
<g opacity="0.5">
<path opacity="0.5" d="M207.055 300.493C205.642 296.256 197.237 301.98 197.237 301.98L196.545 302.915L181.57 323.088L145.032 302.663V293.516C146.755 293.325 148.419 292.783 149.924 291.925C151.429 291.067 152.743 289.91 153.784 288.526C154.825 287.143 155.572 285.561 155.98 283.878C156.387 282.195 156.445 280.446 156.151 278.74C157.967 277.851 159.564 276.574 160.831 274.999C162.103 273.643 163.47 272.006 163.339 270.201C163.361 269.914 163.345 269.624 163.292 269.341C163.08 268.593 162.683 267.911 162.136 267.358C161.59 266.805 160.912 266.4 160.166 266.18C158.677 265.75 157.156 265.437 155.618 265.245C151.996 264.534 148.72 262.645 145.182 261.569C143.576 261.084 141.923 260.771 140.25 260.634C139.053 260.465 137.833 260.6 136.703 261.027C135.56 261.689 134.533 262.532 133.661 263.524C132.492 264.611 131.143 265.487 129.674 266.114C127.484 267.049 124.995 267.424 123.048 268.742C122.499 269.072 122.039 269.531 121.71 270.08C121.427 270.66 121.304 271.306 121.354 271.95C121.346 272.526 121.389 273.102 121.485 273.671C121.688 276.12 122.358 278.507 123.46 280.704C124.555 282.386 125.9 283.894 127.447 285.174L130.769 288.214C131.415 288.918 132.191 289.493 133.053 289.906C133.051 289.674 133.096 289.443 133.184 289.228C133.272 289.013 133.403 288.817 133.568 288.653L132.491 296.135C130.488 295.528 128.408 295.213 126.314 295.2C123.507 295.2 120.633 295.677 119.389 297.603C119.317 297.72 119.254 297.842 119.202 297.968C115.308 302.588 106.38 317.551 111.63 353.885C111.181 358.327 110.909 361.142 110.909 361.142V361.591V361.928L110.966 361.974L113.886 402.095L108.27 441.636H109.524V446.032H108.111V453.093C108.111 453.093 127.765 451.84 130.723 447.481C133.203 443.834 120.858 445.265 116.59 445.863V443.226H116.665V441.739H118.153L123.769 414.908C129.581 404.863 126.576 379.762 126.576 379.762L133.643 383.999L139.258 413.496L135.14 457.254H136.394V460.313H134.747V467.374C134.747 467.374 154.401 466.12 157.358 461.762C159.829 458.115 147.503 459.546 143.226 460.144L142.749 457.339H143.61L149.225 417.798C152.033 407.089 148.215 375.647 147.709 371.626L154.719 325.379L154.616 325.248L154.719 324.594L182.983 334.479C182.983 334.479 185.791 337.284 188.711 328.867C191.425 321.021 198.875 310.5 199.839 309.162L199.942 309.022C199.942 309.022 208.468 304.729 207.055 300.493Z" fill="url(#paint1_linear)"/>
</g>
<path d="M110.806 438.297V445.171H117.685V435.548L110.806 438.297Z" fill="#FDA57D"/>
<path d="M136.956 452.055V460.303L143.834 458.928L142.459 450.68L136.956 452.055Z" fill="#FDA57D"/>
<path d="M121.888 298.109C121.888 298.109 105.453 310.407 113.558 358.543L121.888 298.109Z" fill="#4D8AF0"/>
<path opacity="0.05" d="M121.888 298.109C121.888 298.109 105.453 310.407 113.558 358.543L121.888 298.109Z" fill="black"/>
<path opacity="0.05" d="M143.226 456.254L142.534 452.129L137.03 453.504V456.254H143.226Z" fill="black"/>
<path opacity="0.05" d="M110.881 441.132H117.76V436.998L110.881 439.747V441.132Z" fill="black"/>
<path d="M134.354 289.934L132.978 299.558L145.36 306.441V292.684L134.354 289.934Z" fill="#FDA57D"/>
<path d="M109.58 439.682L115.084 401.141L112.22 361.292L147.999 370.915C147.999 370.915 152.435 405.144 149.525 416.292L144.022 454.795H135.767L139.894 412.168L134.391 383.438L127.512 379.313C127.512 379.313 130.414 403.76 124.761 413.542L119.258 439.672L109.58 439.682Z" fill="#EEEEEE"/>
<path d="M205.763 302.158C204.387 298.033 196.208 303.607 196.208 303.607L195.534 304.543L198.781 310.575L198.884 310.434C198.884 310.434 207.139 306.282 205.763 302.158Z" fill="#FDA57D"/>
<path opacity="0.05" d="M134.204 298.8C134.204 298.8 123.198 295.901 120.446 300.175C117.695 304.449 112.22 362.059 112.22 362.059C112.22 362.059 128.579 375.806 147.999 371.682L154.841 326.324L134.204 298.8Z" fill="black"/>
<path d="M180.99 324.164L137.489 299.848C134.344 298.071 130.806 297.107 127.194 297.042C124.443 297.042 121.654 297.51 120.456 299.38C117.704 303.654 112.201 361.264 112.201 361.264C112.201 361.264 128.561 375.011 147.981 370.887L154.86 325.51L182.413 335.162C182.413 335.162 185.164 337.911 188.028 329.737C190.667 322.097 197.92 311.856 198.856 310.547L195.515 304.524L180.99 324.164Z" fill="#4D8AF0"/>
<path opacity="0.05" d="M134.167 292.076C135.324 293.553 136.802 294.748 138.49 295.57C140.179 296.392 142.032 296.818 143.909 296.817C144.369 296.818 144.828 296.793 145.285 296.742V294.058L134.279 291.309L134.167 292.076Z" fill="black"/>
<path d="M143.984 295.434C150.823 295.434 156.366 289.894 156.366 283.061C156.366 276.227 150.823 270.688 143.984 270.688C137.146 270.688 131.602 276.227 131.602 283.061C131.602 289.894 137.146 295.434 143.984 295.434Z" fill="#FDA57D"/>
<path d="M109.412 443.956V450.83C109.412 450.83 128.523 449.605 131.434 445.331C134.345 441.057 116.3 443.956 116.3 443.956H109.412Z" fill="#333333"/>
<path d="M135.346 457.787V464.661C135.346 464.661 154.457 463.436 157.368 459.162C160.278 454.888 142.234 457.787 142.234 457.787H135.346Z" fill="#333333"/>
<path opacity="0.05" d="M136.132 288.737L140.971 281.816C141.635 280.758 142.462 279.811 143.423 279.011C143.908 278.613 144.48 278.334 145.093 278.198C145.706 278.061 146.343 278.071 146.951 278.225C147.651 278.511 148.302 278.905 148.879 279.394C150.685 280.713 152.913 281.685 155.112 281.265C157.312 280.844 159.183 279.058 160.784 277.346C162.113 275.934 163.545 274.204 163.18 272.296C162.966 271.578 162.575 270.926 162.044 270.398C161.512 269.871 160.857 269.485 160.138 269.275C158.689 268.849 157.209 268.536 155.711 268.34C152.183 267.648 148.991 265.805 145.547 264.767C143.985 264.287 142.375 263.973 140.746 263.832C139.581 263.668 138.393 263.8 137.293 264.216C136.181 264.86 135.182 265.682 134.335 266.647C133.196 267.707 131.882 268.561 130.451 269.172C128.317 270.107 125.94 270.453 124.003 271.725C123.47 272.043 123.024 272.486 122.702 273.016C122.305 273.989 122.226 275.063 122.477 276.084C122.676 278.468 123.33 280.792 124.405 282.929C125.47 284.566 126.776 286.032 128.28 287.278L131.509 290.243C132.139 290.929 132.895 291.488 133.736 291.889C133.596 290.86 135.524 289.607 136.132 288.737Z" fill="black"/>
<path d="M136.132 288.279L140.971 281.358C141.635 280.3 142.462 279.353 143.423 278.553C143.908 278.155 144.48 277.876 145.093 277.74C145.706 277.603 146.343 277.613 146.951 277.767C147.651 278.053 148.302 278.447 148.879 278.936C150.685 280.255 152.913 281.227 155.112 280.807C157.312 280.386 159.183 278.599 160.784 276.888C162.113 275.476 163.545 273.746 163.18 271.838C162.974 271.11 162.587 270.446 162.055 269.908C161.523 269.37 160.864 268.976 160.138 268.761C158.689 268.335 157.209 268.022 155.711 267.826C152.183 267.134 148.991 265.291 145.547 264.253C143.985 263.773 142.375 263.459 140.746 263.318C139.581 263.154 138.393 263.286 137.293 263.701C136.181 264.346 135.182 265.167 134.335 266.133C133.196 267.193 131.882 268.047 130.451 268.658C128.317 269.593 125.94 269.939 124.003 271.211C123.469 271.532 123.022 271.978 122.702 272.511C122.305 273.484 122.226 274.558 122.477 275.579C122.676 277.963 123.33 280.287 124.405 282.425C125.47 284.061 126.776 285.527 128.28 286.773L131.509 289.738C132.139 290.424 132.895 290.983 133.736 291.384C133.596 290.402 135.524 289.149 136.132 288.279Z" fill="#333333"/>
<path d="M561.667 291.961C561.667 291.961 565.979 298.426 565.055 301.504C564.131 304.583 575.221 302.736 575.221 302.736C575.221 302.736 575.529 290.73 577.686 287.96C579.842 285.189 561.667 291.961 561.667 291.961Z" fill="#F7C4A7"/>
<path d="M533.171 296.117C533.171 296.117 524.237 288.729 524.545 285.959C524.545 285.959 517.768 273.03 515.303 279.494C512.839 285.959 519.924 292.731 519.924 292.731L528.55 304.121L533.171 296.117Z" fill="#F7C4A7"/>
<path d="M524.083 412.018C524.083 412.018 515.765 417.251 512.376 415.712C508.988 414.173 507.756 416.635 508.68 417.559C509.604 418.483 529.628 426.486 534.249 425.255C538.87 424.024 536.52 413.94 536.52 413.94L524.083 412.018Z" fill="#535461"/>
<path d="M568.136 434.49C568.136 434.49 566.133 442.955 559.202 442.801C559.202 442.801 548.728 441.878 552.733 445.572C556.737 449.266 580.15 449.882 580.15 449.882C580.15 449.882 580.15 437.26 575.837 434.49C571.524 431.719 568.136 434.49 568.136 434.49Z" fill="#535461"/>
<path d="M555.505 374.77L556.429 396.318C556.429 396.318 556.429 406.477 559.818 411.094C563.207 415.712 567.211 438.8 567.211 438.8H578.918C578.918 438.8 575.529 407.708 572.757 404.014C572.757 404.014 571.524 376.617 575.837 370.46L555.505 374.77Z" fill="#575988"/>
<path opacity="0.1" d="M555.505 374.77L556.429 396.318C556.429 396.318 556.429 406.477 559.818 411.094C563.207 415.712 567.211 438.8 567.211 438.8H578.918C578.918 438.8 575.529 407.708 572.757 404.014C572.757 404.014 571.524 376.617 575.837 370.46L555.505 374.77Z" fill="black"/>
<path d="M579.842 355.376C579.842 355.376 586.928 372.307 573.989 377.232C561.05 382.158 537.638 381.542 537.638 381.542L536.405 417.251C536.405 417.251 521.926 419.098 521.618 414.481V375.385C521.618 375.385 521.926 371.076 531.476 367.382C541.026 363.688 553.965 361.841 553.965 361.841L554.581 353.837L579.842 355.376Z" fill="#575988"/>
<path opacity="0.1" d="M568.489 299.601C570.95 299.329 573.439 299.68 575.728 300.623C577.615 301.417 579.431 302.664 579.842 304.583C580.329 306.855 579.789 311.95 579.169 316.261C578.178 323.019 578.051 329.877 578.794 336.668C579.112 339.496 579.55 341.962 580.15 343.062C581.999 346.449 583.847 362.456 583.847 362.456C583.847 362.456 563.515 354.76 553.349 359.378C553.349 359.378 551.963 327.824 551.809 317.512C551.689 309.527 561.821 300.427 565.209 300.119C567.195 299.939 566.516 299.805 568.489 299.601Z" fill="black"/>
<path d="M568.489 298.985C570.95 298.713 573.439 299.065 575.728 300.007C577.615 300.801 579.431 302.049 579.842 303.967C580.329 306.239 579.789 311.334 579.169 315.645C578.178 322.404 578.051 329.261 578.794 336.052C579.034 338.223 579.488 340.365 580.15 342.447C581.537 346.603 583.847 361.84 583.847 361.84C583.847 361.84 563.515 354.145 553.349 358.762C553.349 358.762 551.963 327.209 551.809 316.896C551.689 308.911 561.821 299.811 565.209 299.503C567.195 299.323 566.516 299.19 568.489 298.985Z" fill="#87EEC3"/>
<path opacity="0.1" d="M573.989 315.973L552.117 314.741C552.117 314.741 550.725 304.026 553.882 304.136L575.529 304.891C575.529 304.891 580.15 310.432 573.989 315.973Z" fill="black"/>
<path d="M573.989 315.357L549.036 314.126C549.036 314.126 529.628 308.277 524.083 301.812C524.083 301.812 524.391 290.422 530.552 289.807L545.126 300.486C547.673 302.353 550.724 303.41 553.882 303.52L575.529 304.275C575.529 304.275 580.15 309.816 573.989 315.357Z" fill="#87EEC3"/>
<path opacity="0.1" d="M575.067 293.347C575.433 290.428 576.758 289.459 577.686 288.267C579.842 285.497 561.667 292.269 561.667 292.269C562.604 293.712 563.425 295.227 564.123 296.799C565.575 297.467 567.154 297.812 568.752 297.81C571.432 297.81 573.15 294.928 575.067 293.347Z" fill="black"/>
<path d="M568.752 297.503C574.877 297.503 579.842 292.541 579.842 286.421C579.842 280.3 574.877 275.338 568.752 275.338C562.627 275.338 557.662 280.3 557.662 286.421C557.662 292.541 562.627 297.503 568.752 297.503Z" fill="#F7C4A7"/>
<path opacity="0.1" d="M561.749 278.653C560.567 277.364 560 275.644 559.464 273.981L558.236 270.168C559.906 271.154 561.687 268.931 563.602 268.625C564.973 268.405 566.269 269.206 567.533 269.783C573.016 272.29 580.16 271.046 584.576 275.149C585.179 275.671 585.646 276.331 585.938 277.073C586.143 277.777 586.227 278.511 586.185 279.243C586.22 281.186 586.027 283.126 585.608 285.024C584.559 289.27 581.755 292.832 579.025 296.25C578.506 296.9 577.924 297.59 577.113 297.771C575.527 298.125 574.301 296.413 573.687 294.91C572.875 292.919 572.276 290.848 571.9 288.732C571.805 287.827 571.557 286.944 571.168 286.121C570.213 284.43 567.861 282.83 566.43 281.52C565.024 280.232 563.062 280.087 561.749 278.653Z" fill="black"/>
<path d="M561.749 278.345C560.567 277.056 560 275.336 559.464 273.673L558.236 269.86C559.906 270.846 561.687 268.623 563.602 268.317C564.973 268.097 566.269 268.898 567.533 269.476C573.016 271.982 580.16 270.738 584.576 274.841C585.179 275.363 585.646 276.023 585.938 276.765C586.143 277.469 586.227 278.203 586.185 278.935C586.22 280.878 586.027 282.818 585.608 284.716C584.559 288.962 581.755 292.525 579.025 295.943C578.506 296.592 577.924 297.282 577.113 297.463C575.527 297.817 574.301 296.105 573.687 294.602C572.875 292.612 572.276 290.541 571.9 288.424C571.805 287.519 571.557 286.636 571.168 285.813C570.213 284.122 567.861 282.522 566.43 281.212C565.024 279.924 563.062 279.779 561.749 278.345Z" fill="#632652"/>
<path d="M571.678 289.653C572.189 289.653 572.603 288.757 572.603 287.652C572.603 286.547 572.189 285.651 571.678 285.651C571.168 285.651 570.754 286.547 570.754 287.652C570.754 288.757 571.168 289.653 571.678 289.653Z" fill="#F7C4A7"/>
<path opacity="0.1" d="M577.224 341.061C577.224 341.061 576.607 342.908 573.527 342.601C570.446 342.293 561.512 341.677 561.512 342.601" fill="black"/>
<path opacity="0.5" d="M552.733 445.265C552.309 444.938 551.996 444.49 551.836 443.98C551.756 444.38 552.003 444.899 552.733 445.573C556.737 449.267 580.15 449.882 580.15 449.882C580.15 449.882 580.15 449.773 580.147 449.574C579.999 449.57 556.725 448.947 552.733 445.265Z" fill="white"/>
<path opacity="0.5" d="M534.249 424.639C529.628 425.871 509.604 417.867 508.68 416.943C508.556 416.818 508.468 416.663 508.423 416.493C508.37 416.678 508.365 416.873 508.41 417.06C508.455 417.247 508.548 417.419 508.68 417.559C509.604 418.483 529.628 426.486 534.249 425.255C536.627 424.621 537.157 421.643 537.113 418.901C537.068 421.458 536.45 424.053 534.249 424.639Z" fill="white"/>
<path d="M404.13 54.7299C404.13 53.6254 403.234 52.7299 402.13 52.7299H318.611C317.507 52.7299 316.611 53.6254 316.611 54.73V101.93C316.611 103.862 319.079 104.671 320.223 103.114L327.738 92.8818C328.115 92.3687 328.713 92.0657 329.35 92.0657H402.13C403.234 92.0657 404.13 91.1702 404.13 90.0657V54.7299Z" fill="#3AA9A5"/>
<path d="M348.443 79.9232C347.043 79.9232 345.814 79.6214 344.757 79.0178C343.713 78.4141 342.91 77.5499 342.347 76.425C341.785 75.3001 341.503 73.9831 341.503 72.4741C341.503 70.9651 341.785 69.655 342.347 68.5438C342.91 67.4189 343.713 66.5546 344.757 65.951C345.814 65.3474 347.043 65.0456 348.443 65.0456C349.349 65.0456 350.2 65.1828 350.996 65.4571C351.793 65.7178 352.5 66.1019 353.117 66.6095C353.296 66.7467 353.419 66.8907 353.488 67.0416C353.557 67.1925 353.591 67.3777 353.591 67.5972C353.591 67.899 353.509 68.1528 353.344 68.3586C353.179 68.5644 352.98 68.6672 352.747 68.6672C352.472 68.6672 352.191 68.5712 351.902 68.3792C351.312 67.9402 350.763 67.6384 350.255 67.4737C349.747 67.2954 349.184 67.2062 348.566 67.2062C347.139 67.2062 346.054 67.6521 345.313 68.5438C344.585 69.4355 344.221 70.7456 344.221 72.4741C344.221 74.2163 344.585 75.5333 345.313 76.425C346.054 77.3167 347.139 77.7625 348.566 77.7625C349.157 77.7625 349.699 77.6734 350.193 77.495C350.701 77.3167 351.271 77.0149 351.902 76.5896C352.04 76.5073 352.177 76.4387 352.314 76.3838C352.452 76.329 352.596 76.3015 352.747 76.3015C352.98 76.3015 353.179 76.4044 353.344 76.6102C353.509 76.816 353.591 77.0697 353.591 77.3715C353.591 77.5773 353.557 77.7625 353.488 77.9271C353.419 78.078 353.296 78.2221 353.117 78.3593C352.5 78.8669 351.793 79.2578 350.996 79.5322C350.2 79.7928 349.349 79.9232 348.443 79.9232Z" fill="white"/>
<path d="M360.676 79.9232C359.619 79.9232 358.616 79.786 357.669 79.5116C356.736 79.2235 355.974 78.8394 355.383 78.3593C355.068 78.1261 354.91 77.7968 354.91 77.3715C354.91 77.0835 354.992 76.8365 355.157 76.6308C355.335 76.4113 355.541 76.3015 355.775 76.3015C356.022 76.3015 356.303 76.3975 356.619 76.5896C357.209 77.0149 357.827 77.3235 358.472 77.5156C359.117 77.7076 359.831 77.8037 360.614 77.8037C361.616 77.8037 362.385 77.6322 362.92 77.2892C363.456 76.9326 363.723 76.4181 363.723 75.7459C363.723 75.2246 363.469 74.8268 362.961 74.5524C362.467 74.2643 361.637 73.99 360.47 73.7293C359.262 73.4687 358.28 73.1669 357.525 72.8239C356.77 72.4809 356.2 72.042 355.816 71.5069C355.431 70.9719 355.239 70.2929 355.239 69.4698C355.239 68.6192 355.479 67.8579 355.96 67.1857C356.44 66.5135 357.106 65.9922 357.957 65.6218C358.822 65.2377 359.79 65.0456 360.861 65.0456C362.824 65.0456 364.423 65.5669 365.659 66.6095C365.837 66.7604 365.961 66.9113 366.03 67.0622C366.112 67.1994 366.153 67.3777 366.153 67.5972C366.153 67.8853 366.064 68.1391 365.886 68.3586C365.721 68.5644 365.522 68.6672 365.288 68.6672C365.151 68.6672 365.021 68.6467 364.897 68.6055C364.787 68.5644 364.636 68.4889 364.444 68.3792C363.881 67.9676 363.332 67.6658 362.797 67.4737C362.275 67.268 361.63 67.1651 360.861 67.1651C359.927 67.1651 359.186 67.3571 358.637 67.7413C358.102 68.1116 357.834 68.6329 357.834 69.3051C357.834 69.8676 358.074 70.2997 358.555 70.6015C359.035 70.9033 359.852 71.1846 361.005 71.4452C362.227 71.7196 363.215 72.0282 363.97 72.3712C364.739 72.7004 365.323 73.1257 365.721 73.647C366.133 74.1683 366.339 74.8199 366.339 75.6019C366.339 76.4524 366.098 77.2069 365.618 77.8654C365.151 78.5102 364.485 79.0178 363.62 79.3881C362.769 79.7448 361.788 79.9232 360.676 79.9232Z" fill="white"/>
<path d="M373.807 79.9232C372.75 79.9232 371.748 79.786 370.801 79.5116C369.867 79.2235 369.105 78.8394 368.515 78.3593C368.199 78.1261 368.041 77.7968 368.041 77.3715C368.041 77.0835 368.124 76.8365 368.289 76.6308C368.467 76.4113 368.673 76.3015 368.906 76.3015C369.153 76.3015 369.435 76.3975 369.751 76.5896C370.341 77.0149 370.959 77.3235 371.604 77.5156C372.249 77.7076 372.963 77.8037 373.746 77.8037C374.748 77.8037 375.517 77.6322 376.052 77.2892C376.587 76.9326 376.855 76.4181 376.855 75.7459C376.855 75.2246 376.601 74.8268 376.093 74.5524C375.599 74.2643 374.768 73.99 373.601 73.7293C372.393 73.4687 371.412 73.1669 370.657 72.8239C369.902 72.4809 369.332 72.042 368.948 71.5069C368.563 70.9719 368.371 70.2929 368.371 69.4698C368.371 68.6192 368.611 67.8579 369.092 67.1857C369.572 66.5135 370.238 65.9922 371.089 65.6218C371.954 65.2377 372.922 65.0456 373.993 65.0456C375.956 65.0456 377.555 65.5669 378.791 66.6095C378.969 66.7604 379.093 66.9113 379.161 67.0622C379.244 67.1994 379.285 67.3777 379.285 67.5972C379.285 67.8853 379.196 68.1391 379.017 68.3586C378.853 68.5644 378.654 68.6672 378.42 68.6672C378.283 68.6672 378.152 68.6467 378.029 68.6055C377.919 68.5644 377.768 68.4889 377.576 68.3792C377.013 67.9676 376.464 67.6658 375.928 67.4737C375.407 67.268 374.762 67.1651 373.993 67.1651C373.059 67.1651 372.318 67.3571 371.769 67.7413C371.233 68.1116 370.966 68.6329 370.966 69.3051C370.966 69.8676 371.206 70.2997 371.686 70.6015C372.167 70.9033 372.984 71.1846 374.137 71.4452C375.359 71.7196 376.347 72.0282 377.102 72.3712C377.871 72.7004 378.454 73.1257 378.853 73.647C379.264 74.1683 379.47 74.8199 379.47 75.6019C379.47 76.4524 379.23 77.2069 378.75 77.8654C378.283 78.5102 377.617 79.0178 376.752 79.3881C375.901 79.7448 374.919 79.9232 373.807 79.9232Z" fill="white"/>
<path d="M666.685 200.059C666.685 198.954 665.79 198.059 664.685 198.059H581.167C580.062 198.059 579.167 198.954 579.167 200.059V247.259C579.167 249.191 581.635 250 582.779 248.443L590.294 238.211C590.67 237.698 591.269 237.395 591.906 237.395H664.685C665.79 237.395 666.685 236.499 666.685 235.395V200.059Z" fill="#3AA9A5"/>
<path d="M607.915 210.457C608.313 210.457 608.629 210.58 608.862 210.827C609.096 211.06 609.212 211.376 609.212 211.774V223.853C609.212 224.251 609.089 224.573 608.842 224.82C608.608 225.067 608.299 225.19 607.915 225.19C607.517 225.19 607.201 225.067 606.968 224.82C606.734 224.573 606.618 224.251 606.618 223.853V218.77H599.184V223.853C599.184 224.251 599.06 224.573 598.813 224.82C598.58 225.067 598.264 225.19 597.866 225.19C597.481 225.19 597.166 225.067 596.918 224.82C596.685 224.573 596.568 224.251 596.568 223.853V211.774C596.568 211.376 596.685 211.06 596.918 210.827C597.152 210.58 597.468 210.457 597.866 210.457C598.264 210.457 598.58 210.58 598.813 210.827C599.06 211.06 599.184 211.376 599.184 211.774V216.63H606.618V211.774C606.618 211.376 606.734 211.06 606.968 210.827C607.201 210.58 607.517 210.457 607.915 210.457Z" fill="white"/>
<path d="M617.091 225.17C616.68 225.17 616.35 225.053 616.103 224.82C615.87 224.573 615.753 224.251 615.753 223.853V212.741H612.005C611.181 212.741 610.77 212.377 610.77 211.65C610.77 210.923 611.181 210.56 612.005 210.56H622.157C622.981 210.56 623.393 210.923 623.393 211.65C623.393 212.377 622.981 212.741 622.157 212.741H618.409V223.853C618.409 224.251 618.286 224.573 618.039 224.82C617.805 225.053 617.49 225.17 617.091 225.17Z" fill="white"/>
<path d="M637.855 210.457C638.239 210.457 638.548 210.58 638.781 210.827C639.015 211.06 639.131 211.376 639.131 211.774V223.956C639.131 224.34 639.021 224.642 638.802 224.861C638.582 225.081 638.294 225.19 637.937 225.19C637.58 225.19 637.299 225.081 637.093 224.861C636.887 224.642 636.784 224.34 636.784 223.956V215.478L633.283 222.104C633.118 222.405 632.94 222.632 632.748 222.783C632.555 222.92 632.329 222.989 632.068 222.989C631.807 222.989 631.581 222.92 631.388 222.783C631.196 222.646 631.018 222.419 630.853 222.104L627.332 215.581V223.956C627.332 224.326 627.222 224.628 627.002 224.861C626.796 225.081 626.515 225.19 626.158 225.19C625.801 225.19 625.52 225.081 625.314 224.861C625.108 224.642 625.005 224.34 625.005 223.956V211.774C625.005 211.376 625.115 211.06 625.334 210.827C625.568 210.58 625.877 210.457 626.261 210.457C626.796 210.457 627.215 210.752 627.517 211.342L632.089 220.046L636.64 211.342C636.942 210.752 637.347 210.457 637.855 210.457Z" fill="white"/>
<path d="M643.534 225.067C643.136 225.067 642.827 224.957 642.608 224.738C642.388 224.518 642.278 224.216 642.278 223.832V211.774C642.278 211.376 642.395 211.06 642.628 210.827C642.875 210.58 643.198 210.457 643.596 210.457C644.008 210.457 644.331 210.58 644.564 210.827C644.811 211.06 644.935 211.376 644.935 211.774V222.886H650.721C651.545 222.886 651.957 223.249 651.957 223.976C651.957 224.703 651.545 225.067 650.721 225.067H643.534Z" fill="white"/>
<path d="M51.4815 200.059C51.4815 198.954 52.3769 198.059 53.4815 198.059H137C138.105 198.059 139 198.954 139 200.059V247.259C139 249.191 136.532 250 135.388 248.443L127.873 238.211C127.496 237.698 126.898 237.395 126.261 237.395H53.4815C52.3769 237.395 51.4815 236.499 51.4815 235.395V200.059Z" fill="#3AA9A5"/>
<path d="M75.3592 225.19C74.9611 225.19 74.6385 225.074 74.3914 224.84C74.158 224.594 74.0413 224.264 74.0413 223.853V211.815C74.0413 211.417 74.1511 211.108 74.3708 210.889C74.6042 210.669 74.9199 210.56 75.3181 210.56H80.3838C81.9351 210.56 83.1432 210.951 84.0081 211.733C84.873 212.501 85.3055 213.585 85.3055 214.984C85.3055 216.383 84.873 217.474 84.0081 218.256C83.1432 219.038 81.9351 219.429 80.3838 219.429H76.6978V223.853C76.6978 224.264 76.5742 224.594 76.3271 224.84C76.0937 225.074 75.7711 225.19 75.3592 225.19ZM80.0544 217.391C81.8802 217.391 82.7932 216.596 82.7932 215.004C82.7932 213.413 81.8802 212.617 80.0544 212.617H76.6978V217.391H80.0544Z" fill="white"/>
<path d="M98.9822 210.457C99.3803 210.457 99.696 210.58 99.9294 210.827C100.163 211.06 100.28 211.376 100.28 211.774V223.853C100.28 224.251 100.156 224.573 99.9088 224.82C99.6755 225.067 99.3666 225.19 98.9822 225.19C98.584 225.19 98.2683 225.067 98.0349 224.82C97.8015 224.573 97.6848 224.251 97.6848 223.853V218.77H90.2509V223.853C90.2509 224.251 90.1274 224.573 89.8802 224.82C89.6469 225.067 89.3311 225.19 88.933 225.19C88.5486 225.19 88.2328 225.067 87.9857 224.82C87.7523 224.573 87.6357 224.251 87.6357 223.853V211.774C87.6357 211.376 87.7523 211.06 87.9857 210.827C88.2191 210.58 88.5349 210.457 88.933 210.457C89.3311 210.457 89.6469 210.58 89.8802 210.827C90.1274 211.06 90.2509 211.376 90.2509 211.774V216.63H97.6848V211.774C97.6848 211.376 97.8015 211.06 98.0349 210.827C98.2683 210.58 98.584 210.457 98.9822 210.457Z" fill="white"/>
<path d="M104.72 225.19C104.322 225.19 103.999 225.074 103.752 224.84C103.519 224.594 103.402 224.264 103.402 223.853V211.815C103.402 211.417 103.512 211.108 103.731 210.889C103.965 210.669 104.28 210.56 104.679 210.56H109.744C111.296 210.56 112.504 210.951 113.369 211.733C114.234 212.501 114.666 213.585 114.666 214.984C114.666 216.383 114.234 217.474 113.369 218.256C112.504 219.038 111.296 219.429 109.744 219.429H106.058V223.853C106.058 224.264 105.935 224.594 105.688 224.84C105.454 225.074 105.132 225.19 104.72 225.19ZM109.415 217.391C111.241 217.391 112.154 216.596 112.154 215.004C112.154 213.413 111.241 212.617 109.415 212.617H106.058V217.391H109.415Z" fill="white"/>
<defs>
<linearGradient id="paint0_linear" x1="1214.85" y1="260.057" x2="1214.85" y2="259.708" gradientUnits="userSpaceOnUse">
<stop stop-color="#808080" stop-opacity="0.25"/>
<stop offset="0.54" stop-color="#808080" stop-opacity="0.12"/>
<stop offset="1" stop-color="#808080" stop-opacity="0.1"/>
</linearGradient>
<linearGradient id="paint1_linear" x1="47442.1" y1="130197" x2="57934" y2="130197" gradientUnits="userSpaceOnUse">
<stop stop-color="#808080" stop-opacity="0.25"/>
<stop offset="0.54" stop-color="#808080" stop-opacity="0.12"/>
<stop offset="1" stop-color="#808080" stop-opacity="0.1"/>
</linearGradient>
</defs>
</svg>
