<svg width="206" height="56" viewBox="0 0 206 56" fill="none" xmlns="http://www.w3.org/2000/svg">
<path d="M11.168 40H18.764C23.48 40 28.7 38.488 28.7 32.872C28.7 29.524 26.216 26.896 22.94 26.608V26.536C25.676 25.708 27.404 23.728 27.404 20.776C27.404 16.096 23.156 14.512 18.944 14.512H11.168V40ZM14.192 17.32H18.692C21.428 17.32 24.164 18.04 24.164 21.172C24.164 24.7 21.212 25.312 18.368 25.312H14.192V17.32ZM14.192 28.12H19.376C22.436 28.12 25.46 29.2 25.46 32.764C25.46 36.004 22.256 37.192 19.304 37.192H14.192V28.12ZM52.9598 14.512H49.9358V29.848C49.9358 33.952 48.4238 37.84 43.3478 37.84C38.2718 37.84 36.7598 33.952 36.7598 29.848V14.512H33.7358V30.28C33.7358 35.824 36.3278 40.648 43.3478 40.648C50.3678 40.648 52.9598 35.824 52.9598 30.28V14.512ZM58.6154 40H64.2314V29.812H67.0034L72.3314 40H79.0634L72.5834 29.236C76.1834 28.588 78.0914 25.816 78.0914 22.252C78.0914 16.312 73.6994 14.512 68.4794 14.512H58.6154V40ZM64.2314 19.264H67.9034C69.9554 19.264 72.2594 19.66 72.2594 22.216C72.2594 24.988 69.5954 25.06 67.5434 25.06H64.2314V19.264ZM82.1752 40H100.139V34.816H87.7912V29.632H98.8432V24.448H87.7912V19.696H99.4912V14.512H82.1752V40ZM104.635 40H110.251V30.064H114.355C119.719 30.064 123.787 28.228 123.787 22.252C123.787 16.204 119.395 14.512 114.103 14.512H104.635V40ZM110.251 19.264H113.131C115.291 19.264 117.955 19.624 117.955 22.252C117.955 24.628 115.975 25.312 113.995 25.312H110.251V19.264ZM125.943 27.256C125.943 35.428 131.739 40.648 139.695 40.648C147.651 40.648 153.447 35.428 153.447 27.256C153.447 19.084 147.651 13.864 139.695 13.864C131.739 13.864 125.943 19.084 125.943 27.256ZM131.775 27.256C131.775 22.504 134.907 19.048 139.695 19.048C144.483 19.048 147.615 22.504 147.615 27.256C147.615 32.008 144.483 35.464 139.695 35.464C134.907 35.464 131.775 32.008 131.775 27.256ZM157.264 40H162.88V29.812H165.652L170.98 40H177.712L171.232 29.236C174.832 28.588 176.74 25.816 176.74 22.252C176.74 16.312 172.348 14.512 167.128 14.512H157.264V40ZM162.88 19.264H166.552C168.604 19.264 170.908 19.66 170.908 22.216C170.908 24.988 168.244 25.06 166.192 25.06H162.88V19.264ZM184.907 40H190.523V19.48H197.795V14.512H177.635V19.48H184.907V40Z" fill="#373737"/>
</svg>
